<svg xmlns="http://www.w3.org/2000/svg" width="400" height="300" viewBox="0 0 400 300">
  <rect width="400" height="300" fill="#f1f5f9"/>
  <!-- shelf unit -->
  <rect x="110" y="80" width="180" height="10" rx="3" fill="#cbd5e1"/>
  <rect x="110" y="140" width="180" height="10" rx="3" fill="#cbd5e1"/>
  <rect x="110" y="200" width="180" height="10" rx="3" fill="#cbd5e1"/>
  <!-- left post -->
  <rect x="108" y="80" width="8" height="130" rx="3" fill="#cbd5e1"/>
  <!-- right post -->
  <rect x="284" y="80" width="8" height="130" rx="3" fill="#cbd5e1"/>
  <!-- top shelf items -->
  <rect x="128" y="62" width="22" height="20" rx="3" fill="#94a3b8"/>
  <rect x="154" y="66" width="16" height="16" rx="2" fill="#b0bec5"/>
  <rect x="174" y="60" width="18" height="22" rx="3" fill="#94a3b8"/>
  <!-- middle shelf items -->
  <rect x="128" y="122" width="28" height="20" rx="3" fill="#94a3b8"/>
  <rect x="162" y="126" width="20" height="16" rx="2" fill="#b0bec5"/>
  <rect x="188" y="120" width="24" height="22" rx="3" fill="#94a3b8"/>
  <rect x="218" y="124" width="18" height="18" rx="2" fill="#b0bec5"/>
  <!-- bottom shelf items -->
  <rect x="130" y="182" width="20" height="20" rx="3" fill="#94a3b8"/>
  <rect x="156" y="180" width="26" height="22" rx="3" fill="#b0bec5"/>
  <rect x="188" y="183" width="20" height="19" rx="2" fill="#94a3b8"/>
  <!-- label -->
  <text x="200" y="258" text-anchor="middle"
        font-family="-apple-system,Segoe UI,Roboto,Helvetica,Arial,sans-serif"
        font-size="15" fill="#94a3b8">No photo available</text>
</svg>
